<?xml version="1.0" encoding="utf-8"?>
<svg id="Ebene_1" data-name="Ebene 1" xmlns="http://www.w3.org/2000/svg" width="126px" height="64.984px" viewBox="0 0 126 64.984" enable-background="new 0 0 126 64.984" xml:space="preserve"><defs><style>.cls-1{fill:#576874;}.cls-2{fill:#c20000;}</style></defs><g id="BDEW_Logo_Tag_RGB" data-name="BDEW Logo + Tag RGB"><g id="BDEW_Logo" data-name="BDEW Logo"><path id="Zusatz" class="cls-1" d="M5.86088,62.39228V60.94311H2.30793V58.85133h2.885V57.44082h-2.885V55.61435H5.59557l.152-1.43584H.64411v8.21377Zm6.614,0V58.22207a2.50977,2.50977,0,0,0-.31464-1.36119,1.64665,1.64665,0,0,0-1.47317-.66659,3.32958,3.32958,0,0,0-1.95445.9439,5.70931,5.70931,0,0,0-.076-.81858H7.09407s.07733.73059.07733,1.49984v4.57283H8.80856V58.28473a2.19953,2.19953,0,0,1,1.30918-.6546c.416,0,.70793.07466.70793.75592v4.00623ZM19.0901,59.23c0-1.43584-.5426-3.03567-2.59571-3.03567-1.8158,0-2.64638,1.56116-2.64638,3.17432,0,1.14654.352,3.16232,2.53306,3.16232a5.106,5.106,0,0,0,2.60637-.63059l-.04932-1.25987a5.68439,5.68439,0,0,1-2.29441.6306c-.71726,0-1.08256-.47861-1.08256-1.5505h3.51562s.01333-.37729.01333-.49061M17.465,58.75135H15.57449c0-.47862.15064-1.39852.9199-1.39852.84257,0,.97056.86924.97056,1.39852m6.67528-2.40641s-.1-.11332-.70393-.11332a2.02024,2.02024,0,0,0-1.20921.70526.36061.36061,0,0,0-.088.10132,5.10324,5.10324,0,0,0-.07732-.71859H20.474a14.25834,14.25834,0,0,1,.088,1.49984v4.57283h1.63848V58.12075a1.88211,1.88211,0,0,1,.98256-.56661,4.48224,4.48224,0,0,1,.81991.076Zm6.4393-.02533H29.01569a1.641,1.641,0,0,0-.06265.37729,2.62226,2.62226,0,0,0-1.48518-.50261c-1.68915,0-2.4584,1.32252-2.4584,3.137,0,1.18387.38,3.11166,2.16644,3.11166a2.384,2.384,0,0,0,1.70115-.88257s-.03733.37863-.03733.55461v.39062a1.745,1.745,0,0,1-.05067.45329c-.11332.37862-.42795.57993-1.10921.57993a6.553,6.553,0,0,1-2.30509-.45328l-.06266,1.42251A5.49275,5.49275,0,0,0,27.67984,65c1.49984,0,2.48373-.59194,2.7477-1.73848a5.77872,5.77872,0,0,0,.064-.98256V57.80478c0-.71726.088-1.48517.088-1.48517m-1.73981,4.01956a1.68044,1.68044,0,0,1-1.25853.70526c-.73193,0-.89458-1.13454-.89458-1.71315,0-.71859.06267-1.81447,1.0079-1.81447a2.50157,2.50157,0,0,1,1.14521.32663Zm5.01544-6.086a.96743.96743,0,0,0-.98389-.98256.97658.97658,0,1,0,0,1.95312.96485.96485,0,0,0,.98389-.97056m-.164,8.13911V57.6168a9.45759,9.45759,0,0,0-.13866-1.29719H32.0527v6.07267ZM40.3038,59.23c0-1.43584-.54128-3.03567-2.59571-3.03567-1.81314,0-2.645,1.56116-2.645,3.17432,0,1.14654.35329,3.16232,2.53172,3.16232a5.11073,5.11073,0,0,0,2.609-.63059l-.05066-1.25987a5.67464,5.67464,0,0,1-2.29308.6306c-.71859,0-1.08256-.47861-1.08256-1.5505H40.2918s.012-.37729.012-.49061m-1.62516-.47861H36.78952c0-.47862.152-1.39852.91857-1.39852.84656,0,.97055.86924.97055,1.39852M43.55411,61.611a.92011.92011,0,0,0-.96922-.9319.9298.9298,0,0,0-.9959.9319.93973.93973,0,0,0,.9959.94524.92368.92368,0,0,0,.96922-.94524M56.658,54.29183l-1.71448-.10132-.97056,3.9809c-.14932.60526-.352,1.75181-.39062,1.97845-.036-.22664-.23864-1.38652-.364-1.97845l-.89456-3.9809H50.53335l-.90523,3.9809c-.13865.60526-.316,1.71315-.3533,1.95312-.05066-.252-.24-1.36119-.37862-1.95312L47.951,54.11452l-1.77581.088,2.17976,8.18977h1.77714l.85591-3.76759c.12532-.5786.40262-2.1411.40262-2.1411s.27731,1.53717.404,2.1411l.83191,3.76759h1.8398Zm5.618,8.10045a9.16351,9.16351,0,0,1-.088-1.25986V58.23407a2.23375,2.23375,0,0,0-.37729-1.46118,1.945,1.945,0,0,0-1.57582-.5786,7.38612,7.38612,0,0,0-2.54373.54127l.112,1.25987a5.315,5.315,0,0,1,2.10377-.54261c.492,0,.65459.2773.65459.74392V58.802a4.81506,4.81506,0,0,0-2.67037.65459,1.42076,1.42076,0,0,0-.57994,1.2092,1.69286,1.69286,0,0,0,1.72648,1.86513,2.71077,2.71077,0,0,0,1.62516-.70525,3.73386,3.73386,0,0,0,.06265.5666Zm-1.71448-1.56249a1.83147,1.83147,0,0,1-1.05722.45328c-.44127,0-.57993-.39063-.57993-.70526a.67132.67132,0,0,1,.21465-.49061,2.53289,2.53289,0,0,1,1.4225-.39062Zm7.45919-.23865c0-1.4625-1.35851-1.72647-2.37974-2.17976-.22663-.10132-.44261-.20264-.44261-.44128,0-.21465.15064-.504.61726-.504a5.64387,5.64387,0,0,1,1.77847.428l.088-1.35985a5.36736,5.36736,0,0,0-1.81447-.34,2.02334,2.02334,0,0,0-2.24242,1.92646c0,1.33585,1.38519,1.58782,2.30508,2.01578.276.13865.50529.2653.50529.52927,0,.34-.26665.55461-.65727.55461a6.16836,6.16836,0,0,1-2.14243-.60527l-.07332,1.46251a6.01425,6.01425,0,0,0,2.17709.47862,2.0136,2.0136,0,0,0,2.28108-1.96513m5.50474,0c0-1.4625-1.35985-1.72647-2.37974-2.17976-.22664-.10132-.44-.20264-.44-.44128,0-.21465.15065-.504.61728-.504a5.6419,5.6419,0,0,1,1.7758.428l.088-1.35985a5.348,5.348,0,0,0-1.81447-.34A2.02263,2.02263,0,0,0,69.13,58.12075c0,1.33585,1.38519,1.58782,2.30776,2.01578.276.13865.50261.2653.50261.52927,0,.34-.26664.55461-.65726.55461a6.16731,6.16731,0,0,1-2.13977-.60527l-.076,1.46251a6.01877,6.01877,0,0,0,2.17976.47862,2.012,2.012,0,0,0,2.27842-1.96513M79.81417,59.23c0-1.43584-.54128-3.03567-2.59705-3.03567-1.81447,0-2.645,1.56116-2.645,3.17432,0,1.14654.352,3.16232,2.53439,3.16232a5.10017,5.10017,0,0,0,2.60639-.63059l-.04933-1.25987a5.67606,5.67606,0,0,1-2.29442.6306c-.71592,0-1.08388-.47861-1.08388-1.5505h3.51562s.01333-.37729.01333-.49061M78.189,58.75135H76.29855c0-.47862.15066-1.39852.91857-1.39852.84391,0,.97189.86924.97189,1.39852m6.67661-2.40641s-.09865-.11332-.70526-.11332a2.02016,2.02016,0,0,0-1.20919.70526.36047.36047,0,0,0-.088.10132,5.18889,5.18889,0,0,0-.076-.71859H81.19935a14.25834,14.25834,0,0,1,.088,1.49984v4.57283h1.63849V58.12075a1.87974,1.87974,0,0,1,.98122-.56661,4.50067,4.50067,0,0,1,.81991.076ZM86.44011,61.611a.98393.98393,0,0,0-1.96511,0,.93854.93854,0,0,0,.99456.94524.92484.92484,0,0,0,.97055-.94524m9.19767.78125V60.88045h-3.453V54.17851H90.521v8.21377ZM101.79844,59.23c0-1.43584-.54394-3.03567-2.59571-3.03567-1.81581,0-2.64638,1.56116-2.64638,3.17432,0,1.14654.352,3.16232,2.53172,3.16232a5.11669,5.11669,0,0,0,2.609-.63059l-.052-1.25987a5.67312,5.67312,0,0,1-2.29176.6306c-.71858,0-1.08254-.47861-1.08254-1.5505h3.51429s.01332-.37729.01332-.49061m-1.62515-.47861H98.28283c0-.47862.152-1.39852.9199-1.39852.84391,0,.97056.86924.97056,1.39852m8.64305.59193c0-1.24786-.316-3.149-2.26908-3.149a3.018,3.018,0,0,0-1.63716.64126s.036-.40262.036-.64126v-2.709l-1.65049.164v7.46986a12.38884,12.38884,0,0,1-.08531,1.27319h1.57182a2.371,2.371,0,0,0,.06533-.46661,2.93871,2.93871,0,0,0,1.63848.60526c1.48385,0,2.33041-1.38651,2.33041-3.18765m-1.67714-.012c0,1.38518-.47862,1.8518-.98123,1.8518a2.498,2.498,0,0,1-1.21187-.35329V57.9821a2.178,2.178,0,0,1,1.23453-.47862c.85991,0,.95857,1.14654.95857,1.8278m8.10045-.10132c0-1.43584-.54127-3.03567-2.59572-3.03567-1.81314,0-2.64371,1.56116-2.64371,3.17432,0,1.14654.352,3.16232,2.53172,3.16232a5.10012,5.10012,0,0,0,2.60639-.63059l-.04933-1.25987a5.67606,5.67606,0,0,1-2.29442.6306c-.71591,0-1.08121-.47861-1.08121-1.5505h3.51294s.01334-.37729.01334-.49061m-1.62516-.47861H111.724c0-.47862.15465-1.39852.9199-1.39852.84658,0,.97056.86924.97056,1.39852m8.40309,3.64093V58.22207a2.50973,2.50973,0,0,0-.312-1.36119,1.65262,1.65262,0,0,0-1.47717-.66659,3.33807,3.33807,0,0,0-1.95312.9439,5.80769,5.80769,0,0,0-.07466-.81858h-1.56249s.07466.73059.07466,1.49984v4.57283h1.63848V58.28473a2.20339,2.20339,0,0,1,1.31186-.6546c.41462,0,.70392.07466.70392.75592v4.00623Zm3.33831-.78125a.91932.91932,0,0,0-.96924-.9319.92862.92862,0,0,0-.99456.9319.93855.93855,0,0,0,.99456.94524.9229.9229,0,0,0,.96924-.94524"/><path id="w" class="cls-2" d="M89.92081,12.45558V29.779a10.24006,10.24006,0,0,0,17.73807,6.63128,9.94542,9.94542,0,0,0,7.28054,3.27031A10.18448,10.18448,0,0,0,125.35561,29.779V12.45558h-6.266V29.919a4.15195,4.15195,0,0,1-8.2951,0V12.45558h-6.266V29.919a4.10539,4.10539,0,0,1-4.1942,3.9609,4.06364,4.06364,0,0,1-4.14755-3.9609V12.45558Z"/><path id="e" class="cls-2" d="M87.59172,27.50154a13.29324,13.29324,0,0,0,.176-2.05978,13.93929,13.93929,0,1,0-.95189,5.02346H80.27918a8.172,8.172,0,1,1,.8839-8.65906H71.26549l.00134,5.69538Z"/><path id="d" class="cls-2" d="M45.824,33.711a7.1245,7.1245,0,0,1-1.89047.27731,7.32073,7.32073,0,0,1-3.09832-.68526A8.21593,8.21593,0,1,1,45.824,33.711M51.96466,0V14.7744a13.10132,13.10132,0,0,0-8.03113-2.757,13.83185,13.83185,0,0,0,0,27.66366,13.39718,13.39718,0,0,0,8.03113-2.62238v2.32375H57.928V0Z"/><path id="b" class="cls-2" d="M17.73638,33.30317a7.30518,7.30518,0,0,1-3.09833.68526,7.19589,7.19589,0,0,1-1.89046-.276,8.18,8.18,0,1,1,4.98879-.4093M14.63805,12.01749a13.113,13.113,0,0,0-8.02979,2.7557V.00013H.64491V39.38385H6.60826V37.05743a13.38529,13.38529,0,0,0,8.02979,2.62372,13.83184,13.83184,0,0,0,0-27.66366"/></g></g></svg>