<svg xmlns="http://www.w3.org/2000/svg" viewBox="0 0 49 49"><defs><style>.cls-1{fill:#4d4d4d;}.cls-2{fill:#fff;}</style></defs><title>Asset 1</title><g id="Layer_2" data-name="Layer 2"><g id="Ebene_1" data-name="Ebene 1"><circle class="cls-1" cx="24.5" cy="24.5" r="24.5"/><path class="cls-2" d="M27.12,21.52v-.06l0,.06Z"/><rect class="cls-2" x="12.34" y="18.99" width="5.79" height="17.41"/><path class="cls-2" d="M15.27,10.6a3,3,0,1,0-.07,6h0a3,3,0,1,0,0-6Z"/><path class="cls-2" d="M32.34,18.58a5.74,5.74,0,0,0-5.22,2.88v.06h0l0-.06V19H21.33c.08,1.63,0,17.41,0,17.41h5.79V26.68a4,4,0,0,1,.19-1.41,3.17,3.17,0,0,1,3-2.12c2.09,0,2.93,1.6,2.93,3.94V36.4H39v-10C39,21.07,36.14,18.58,32.34,18.58Z"/></g></g></svg>