<?xml version="1.0" encoding="utf-8"?>
<!-- Generator: Adobe Illustrator 21.0.0, SVG Export Plug-In . SVG Version: 6.00 Build 0)  -->
<svg version="1.1" id="Layer_1" xmlns="http://www.w3.org/2000/svg" xmlns:xlink="http://www.w3.org/1999/xlink" x="0px" y="0px"
	 width="27.625px" height="27.714px" viewBox="0 0 27.625 27.714" enable-background="new 0 0 27.625 27.714" xml:space="preserve">
<g>
	<path fill="#4D4D4D" d="M25.753,1.875c-2.5-2.5-6.568-2.5-9.068,0l-4.18,4.18c-0.55,0.55-0.55,1.444,0,1.994
		c0.55,0.549,1.443,0.549,1.993,0l4.18-4.181c1.35-1.351,3.732-1.349,5.082,0c0.675,0.675,1.046,1.578,1.046,2.541
		c0,0.964-0.372,1.865-1.046,2.54l-5.466,5.468c-1.401,1.4-3.681,1.4-5.082,0c-0.532-0.533-1.462-0.533-1.994,0
		c-0.267,0.267-0.414,0.621-0.413,0.998c0,0.376,0.147,0.729,0.413,0.995c1.209,1.209,2.819,1.875,4.534,1.875
		c1.715,0,3.325-0.666,4.534-1.875l5.467-5.467c1.207-1.207,1.872-2.817,1.872-4.534S26.96,3.082,25.753,1.875z"/>
	<path fill="#4D4D4D" d="M12.485,20.311l-3.538,3.537c-1.35,1.35-3.732,1.35-5.082,0c-0.677-0.678-1.05-1.579-1.05-2.54
		c0-0.962,0.373-1.863,1.05-2.541l5.146-5.146c1.348-1.35,3.73-1.352,5.082,0.001c0.55,0.547,1.443,0.548,1.993-0.001
		c0.267-0.267,0.414-0.621,0.413-0.998c0-0.376-0.147-0.729-0.413-0.995c-1.209-1.209-2.819-1.875-4.533-1.875c0,0,0,0,0,0
		c-1.715,0-3.325,0.666-4.534,1.875l-5.146,5.146C0.665,17.98,0,19.591,0,21.308s0.665,3.326,1.873,4.533
		c1.207,1.208,2.817,1.873,4.534,1.873s3.327-0.665,4.534-1.873l3.538-3.537c0.548-0.55,0.548-1.443,0-1.993
		C13.945,19.777,13.017,19.777,12.485,20.311z"/>
</g>
</svg>
