<svg xmlns="http://www.w3.org/2000/svg" width="20" height="20" viewBox="0 0 20 20" fill="none"><path d="M10 20C7.63021 20 5.33333 19.1562 3.53125 17.6302C3.10938 17.2708 2.71354 16.875 2.34896 16.4479C0.833333 14.6458 0 12.3594 0 10C0 7.32812 1.04167 4.81771 2.92708 2.92708C4.81771 1.04167 7.32812 0 10 0C12.6719 0 15.1823 1.04167 17.0729 2.92708C18.9583 4.81771 20 7.32812 20 10C20 12.3594 19.1667 14.6458 17.6458 16.4427C17.2865 16.8698 16.8906 17.2656 16.4635 17.625C14.6667 19.1562 12.3698 20 10 20ZM10 1.25C5.17708 1.25 1.25 5.17708 1.25 10C1.25 12.0625 1.97917 14.0677 3.30729 15.6406C3.61979 16.0156 3.96875 16.3594 4.33854 16.6771C5.91667 18.0156 7.92708 18.75 10 18.75C12.0729 18.75 14.0833 18.0156 15.6562 16.6771C16.026 16.3646 16.375 16.0156 16.6875 15.6406C18.0208 14.0677 18.75 12.0625 18.75 10C18.75 5.17708 14.8229 1.25 10 1.25Z" fill="#333333"></path><path d="M10 10C7.93229 10 6.25 8.31771 6.25 6.25C6.25 4.18229 7.93229 2.5 10 2.5C12.0677 2.5 13.75 4.18229 13.75 6.25C13.75 8.31771 12.0677 10 10 10ZM10 3.75C8.61979 3.75 7.5 4.86979 7.5 6.25C7.5 7.63021 8.61979 8.75 10 8.75C11.3802 8.75 12.5 7.63021 12.5 6.25C12.5 4.86979 11.3802 3.75 10 3.75Z" fill="#333333"></path><path d="M16.0628 17.776C16.0107 17.776 15.9638 17.7708 15.9118 17.7551C15.5784 17.6718 15.3753 17.3333 15.4586 16.9947C15.5732 16.5468 15.6253 16.0833 15.6253 15.6197C15.6253 12.5624 13.1409 10.0416 10.0836 9.99471H10.0003H9.91698C6.85969 10.0468 4.37532 12.5676 4.37532 15.6249C4.37532 16.0885 4.43261 16.552 4.54199 16.9999C4.62532 17.3333 4.4222 17.6718 4.08886 17.7603C3.75553 17.8437 3.41699 17.6405 3.32845 17.3072C3.19303 16.7603 3.12012 16.1978 3.12012 15.6301C3.12012 13.8124 3.82324 12.0937 5.10449 10.802C6.38053 9.51033 8.08365 8.78117 9.90135 8.75513C9.90656 8.75513 9.90656 8.75513 9.91177 8.75513H10.0003H10.0889C10.0941 8.75513 10.0941 8.75513 10.0993 8.75513C11.917 8.78117 13.6201 9.50513 14.8961 10.802C16.1722 12.0989 16.8805 13.8124 16.8805 15.6301C16.8805 16.1978 16.8128 16.7603 16.6722 17.3072C16.5993 17.5885 16.344 17.776 16.0628 17.776Z" fill="#333333"></path><path d="M10.0002 3.22925C14.2189 3.22925 14.3231 9.27092 10.4169 9.27092C5.83354 9.27092 5.67729 3.22925 10.0002 3.22925Z" fill="#333333"></path><path d="M3.90664 16.2501C3.55247 15.0522 3.48997 9.58343 10.0004 9.53134C16.5108 9.47926 16.3546 15.4688 16.4066 16.2501C16.4587 17.0313 12.7816 19.4845 10.1462 19.5834C7.51081 19.6824 4.16706 17.1355 3.90664 16.2501Z" fill="#333333"></path></svg>