<svg xmlns="http://www.w3.org/2000/svg" width="862" height="60" viewBox="0 0 862 60" fill="none"><path d="M3.69 12.59H15.12C17.16 12.59 19.005 12.92 20.655 13.58C22.335 14.24 23.76 15.23 24.93 16.55C26.13 17.84 27.045 19.475 27.675 21.455C28.335 23.405 28.665 25.685 28.665 28.295C28.665 30.905 28.335 33.2 27.675 35.18C27.045 37.13 26.13 38.765 24.93 40.085C23.76 41.375 22.335 42.35 20.655 43.01C19.005 43.67 17.16 44 15.12 44H3.69V12.59ZM15.12 38.735C17.34 38.735 19.095 38.09 20.385 36.8C21.705 35.48 22.365 33.47 22.365 30.77V25.82C22.365 23.12 21.705 21.125 20.385 19.835C19.095 18.515 17.34 17.855 15.12 17.855H9.63V38.735H15.12ZM37.2354 17.09C36.0354 17.09 35.1654 16.82 34.6254 16.28C34.1154 15.74 33.8604 15.05 33.8604 14.21V13.31C33.8604 12.47 34.1154 11.78 34.6254 11.24C35.1654 10.7 36.0354 10.43 37.2354 10.43C38.4054 10.43 39.2604 10.7 39.8004 11.24C40.3404 11.78 40.6104 12.47 40.6104 13.31V14.21C40.6104 15.05 40.3404 15.74 39.8004 16.28C39.2604 16.82 38.4054 17.09 37.2354 17.09ZM34.3554 20.51H40.1154V44H34.3554V20.51ZM56.2869 44.54C54.5469 44.54 52.9869 44.255 51.6069 43.685C50.2569 43.085 49.1019 42.26 48.1419 41.21C47.2119 40.13 46.4919 38.84 45.9819 37.34C45.4719 35.81 45.2169 34.1 45.2169 32.21C45.2169 30.35 45.4569 28.67 45.9369 27.17C46.4469 25.67 47.1669 24.395 48.0969 23.345C49.0269 22.265 50.1669 21.44 51.5169 20.87C52.8669 20.27 54.3969 19.97 56.1069 19.97C57.9369 19.97 59.5269 20.285 60.8769 20.915C62.2269 21.545 63.3369 22.4 64.2069 23.48C65.0769 24.56 65.7219 25.82 66.1419 27.26C66.5919 28.67 66.8169 30.185 66.8169 31.805V33.695H51.2019V34.28C51.2019 35.99 51.6819 37.37 52.6419 38.42C53.6019 39.44 55.0269 39.95 56.9169 39.95C58.3569 39.95 59.5269 39.65 60.4269 39.05C61.3569 38.45 62.1819 37.685 62.9019 36.755L66.0069 40.22C65.0469 41.57 63.7269 42.635 62.0469 43.415C60.3969 44.165 58.4769 44.54 56.2869 44.54ZM56.1969 24.29C54.6669 24.29 53.4519 24.8 52.5519 25.82C51.6519 26.84 51.2019 28.16 51.2019 29.78V30.14H60.8319V29.735C60.8319 28.115 60.4269 26.81 59.6169 25.82C58.8369 24.8 57.6969 24.29 56.1969 24.29ZM90.1695 44L79.9095 12.59H85.9845L90.7995 27.89L93.5895 38.33H93.7245L96.4695 27.89L101.284 12.59H107.179L96.9195 44H90.1695ZM118.993 44.54C117.313 44.54 115.798 44.255 114.448 43.685C113.128 43.115 111.988 42.29 111.028 41.21C110.098 40.13 109.378 38.84 108.868 37.34C108.358 35.81 108.103 34.1 108.103 32.21C108.103 30.32 108.358 28.625 108.868 27.125C109.378 25.625 110.098 24.35 111.028 23.3C111.988 22.22 113.128 21.395 114.448 20.825C115.798 20.255 117.313 19.97 118.993 19.97C120.673 19.97 122.188 20.255 123.538 20.825C124.888 21.395 126.028 22.22 126.958 23.3C127.918 24.35 128.653 25.625 129.163 27.125C129.673 28.625 129.928 30.32 129.928 32.21C129.928 34.1 129.673 35.81 129.163 37.34C128.653 38.84 127.918 40.13 126.958 41.21C126.028 42.29 124.888 43.115 123.538 43.685C122.188 44.255 120.673 44.54 118.993 44.54ZM118.993 39.905C120.523 39.905 121.723 39.44 122.593 38.51C123.463 37.58 123.898 36.215 123.898 34.415V30.05C123.898 28.28 123.463 26.93 122.593 26C121.723 25.07 120.523 24.605 118.993 24.605C117.493 24.605 116.308 25.07 115.438 26C114.568 26.93 114.133 28.28 114.133 30.05V34.415C114.133 36.215 114.568 37.58 115.438 38.51C116.308 39.44 117.493 39.905 118.993 39.905ZM140.794 44C138.814 44 137.359 43.505 136.429 42.515C135.499 41.525 135.034 40.13 135.034 38.33V10.7H140.794V39.41H143.899V44H140.794ZM148.262 10.7H154.022V30.77H154.247L157.352 26.54L162.617 20.51H169.142L161.042 29.6L169.997 44H163.157L157.127 33.47L154.022 36.845V44H148.262V10.7ZM180.786 44.54C178.536 44.54 176.646 44.165 175.116 43.415C173.586 42.635 172.236 41.57 171.066 40.22L174.576 36.8C175.446 37.79 176.391 38.57 177.411 39.14C178.461 39.71 179.661 39.995 181.011 39.995C182.391 39.995 183.381 39.755 183.981 39.275C184.611 38.795 184.926 38.135 184.926 37.295C184.926 36.605 184.701 36.065 184.251 35.675C183.831 35.255 183.096 34.97 182.046 34.82L179.706 34.505C177.156 34.175 175.206 33.455 173.856 32.345C172.536 31.205 171.876 29.555 171.876 27.395C171.876 26.255 172.086 25.235 172.506 24.335C172.926 23.405 173.526 22.625 174.306 21.995C175.086 21.335 176.016 20.84 177.096 20.51C178.206 20.15 179.436 19.97 180.786 19.97C181.926 19.97 182.931 20.06 183.801 20.24C184.701 20.39 185.511 20.63 186.231 20.96C186.951 21.26 187.611 21.65 188.211 22.13C188.811 22.58 189.396 23.09 189.966 23.66L186.591 27.035C185.901 26.315 185.076 25.715 184.116 25.235C183.156 24.755 182.106 24.515 180.966 24.515C179.706 24.515 178.791 24.74 178.221 25.19C177.681 25.64 177.411 26.225 177.411 26.945C177.411 27.725 177.636 28.325 178.086 28.745C178.566 29.135 179.361 29.42 180.471 29.6L182.856 29.915C187.926 30.635 190.461 32.945 190.461 36.845C190.461 37.985 190.221 39.035 189.741 39.995C189.291 40.925 188.646 41.735 187.806 42.425C186.966 43.085 185.946 43.61 184.746 44C183.576 44.36 182.256 44.54 180.786 44.54ZM192.812 20.51H198.347L200.732 30.185L202.577 38.24H202.757L204.917 30.185L207.662 20.51H212.882L215.717 30.185L217.922 38.24H218.102L219.947 30.185L222.287 20.51H227.642L221.207 44H214.997L211.982 33.65L210.227 27.26H210.092L208.382 33.65L205.412 44H199.292L192.812 20.51ZM234.857 17.09C233.657 17.09 232.787 16.82 232.247 16.28C231.737 15.74 231.482 15.05 231.482 14.21V13.31C231.482 12.47 231.737 11.78 232.247 11.24C232.787 10.7 233.657 10.43 234.857 10.43C236.027 10.43 236.882 10.7 237.422 11.24C237.962 11.78 238.232 12.47 238.232 13.31V14.21C238.232 15.05 237.962 15.74 237.422 16.28C236.882 16.82 236.027 17.09 234.857 17.09ZM231.977 20.51H237.737V44H231.977V20.51ZM244.414 44V20.51H250.174V25.37H250.399C250.549 24.74 250.774 24.14 251.074 23.57C251.404 22.97 251.824 22.445 252.334 21.995C252.844 21.545 253.444 21.185 254.134 20.915C254.854 20.645 255.679 20.51 256.609 20.51H257.869V25.955H256.069C254.119 25.955 252.649 26.24 251.659 26.81C250.669 27.38 250.174 28.31 250.174 29.6V44H244.414ZM269.591 44C267.611 44 266.096 43.49 265.046 42.47C264.026 41.42 263.516 39.935 263.516 38.015V25.1H260.051V20.51H261.851C262.721 20.51 263.306 20.315 263.606 19.925C263.936 19.505 264.101 18.89 264.101 18.08V14.075H269.276V20.51H274.091V25.1H269.276V39.41H273.731V44H269.591ZM286.782 44.54C284.532 44.54 282.642 44.165 281.112 43.415C279.582 42.635 278.232 41.57 277.062 40.22L280.572 36.8C281.442 37.79 282.387 38.57 283.407 39.14C284.457 39.71 285.657 39.995 287.007 39.995C288.387 39.995 289.377 39.755 289.977 39.275C290.607 38.795 290.922 38.135 290.922 37.295C290.922 36.605 290.697 36.065 290.247 35.675C289.827 35.255 289.092 34.97 288.042 34.82L285.702 34.505C283.152 34.175 281.202 33.455 279.852 32.345C278.532 31.205 277.872 29.555 277.872 27.395C277.872 26.255 278.082 25.235 278.502 24.335C278.922 23.405 279.522 22.625 280.302 21.995C281.082 21.335 282.012 20.84 283.092 20.51C284.202 20.15 285.432 19.97 286.782 19.97C287.922 19.97 288.927 20.06 289.797 20.24C290.697 20.39 291.507 20.63 292.227 20.96C292.947 21.26 293.607 21.65 294.207 22.13C294.807 22.58 295.392 23.09 295.962 23.66L292.587 27.035C291.897 26.315 291.072 25.715 290.112 25.235C289.152 24.755 288.102 24.515 286.962 24.515C285.702 24.515 284.787 24.74 284.217 25.19C283.677 25.64 283.407 26.225 283.407 26.945C283.407 27.725 283.632 28.325 284.082 28.745C284.562 29.135 285.357 29.42 286.467 29.6L288.852 29.915C293.922 30.635 296.457 32.945 296.457 36.845C296.457 37.985 296.217 39.035 295.737 39.995C295.287 40.925 294.642 41.735 293.802 42.425C292.962 43.085 291.942 43.61 290.742 44C289.572 44.36 288.252 44.54 286.782 44.54ZM310.813 44.54C309.073 44.54 307.528 44.255 306.178 43.685C304.828 43.115 303.688 42.29 302.758 41.21C301.858 40.13 301.168 38.84 300.688 37.34C300.208 35.81 299.968 34.1 299.968 32.21C299.968 30.32 300.208 28.625 300.688 27.125C301.168 25.625 301.858 24.35 302.758 23.3C303.688 22.22 304.828 21.395 306.178 20.825C307.528 20.255 309.073 19.97 310.813 19.97C313.183 19.97 315.133 20.495 316.663 21.545C318.223 22.595 319.348 24.05 320.038 25.91L315.313 28.025C315.043 27.035 314.533 26.225 313.783 25.595C313.063 24.935 312.073 24.605 310.813 24.605C309.193 24.605 307.978 25.115 307.168 26.135C306.388 27.155 305.998 28.49 305.998 30.14V34.415C305.998 36.065 306.388 37.4 307.168 38.42C307.978 39.41 309.193 39.905 310.813 39.905C312.193 39.905 313.258 39.56 314.008 38.87C314.758 38.15 315.343 37.265 315.763 36.215L320.173 38.33C319.393 40.4 318.208 41.96 316.618 43.01C315.028 44.03 313.093 44.54 310.813 44.54ZM324.614 10.7H330.374V24.425H330.599C331.079 23.165 331.829 22.115 332.849 21.275C333.899 20.405 335.339 19.97 337.169 19.97C339.599 19.97 341.459 20.765 342.749 22.355C344.039 23.945 344.684 26.21 344.684 29.15V44H338.924V29.735C338.924 28.055 338.624 26.795 338.024 25.955C337.424 25.115 336.434 24.695 335.054 24.695C334.454 24.695 333.869 24.785 333.299 24.965C332.759 25.115 332.264 25.355 331.814 25.685C331.394 25.985 331.049 26.375 330.779 26.855C330.509 27.305 330.374 27.845 330.374 28.475V44H324.614V10.7ZM368.349 44C367.089 44 366.084 43.64 365.334 42.92C364.614 42.17 364.164 41.18 363.984 39.95H363.714C363.324 41.48 362.529 42.635 361.329 43.415C360.129 44.165 358.644 44.54 356.874 44.54C354.474 44.54 352.629 43.91 351.339 42.65C350.049 41.39 349.404 39.71 349.404 37.61C349.404 35.18 350.274 33.38 352.014 32.21C353.754 31.01 356.229 30.41 359.439 30.41H363.444V28.7C363.444 27.38 363.099 26.36 362.409 25.64C361.719 24.92 360.609 24.56 359.079 24.56C357.729 24.56 356.634 24.86 355.794 25.46C354.984 26.03 354.294 26.72 353.724 27.53L350.304 24.47C351.174 23.12 352.329 22.04 353.769 21.23C355.209 20.39 357.114 19.97 359.484 19.97C362.664 19.97 365.079 20.69 366.729 22.13C368.379 23.57 369.204 25.64 369.204 28.34V39.41H371.544V44H368.349ZM358.809 40.355C360.099 40.355 361.194 40.07 362.094 39.5C362.994 38.93 363.444 38.09 363.444 36.98V33.875H359.754C356.754 33.875 355.254 34.835 355.254 36.755V37.52C355.254 38.48 355.554 39.2 356.154 39.68C356.784 40.13 357.669 40.355 358.809 40.355ZM377.376 25.055H373.911V20.51H377.376V17.135C377.376 15.065 377.916 13.475 378.996 12.365C380.106 11.255 381.726 10.7 383.856 10.7H387.951V15.29H383.136V20.51H387.951V25.055H383.136V44H377.376V25.055ZM399.273 44C397.293 44 395.778 43.49 394.728 42.47C393.708 41.42 393.198 39.935 393.198 38.015V25.1H389.733V20.51H391.533C392.403 20.51 392.988 20.315 393.288 19.925C393.618 19.505 393.783 18.89 393.783 18.08V14.075H398.958V20.51H403.773V25.1H398.958V39.41H403.413V44H399.273Z" fill="#333333"></path><path d="M428.325 44V26.55H435.275C436.842 26.55 438.042 27 438.875 27.9C439.725 28.7833 440.15 30 440.15 31.55C440.15 33.1 439.725 34.325 438.875 35.225C438.042 36.1083 436.842 36.55 435.275 36.55H430.425V44H428.325ZM430.425 34.7H435.275C436.108 34.7 436.75 34.4833 437.2 34.05C437.667 33.6167 437.9 33 437.9 32.2V30.9C437.9 30.1 437.667 29.4833 437.2 29.05C436.75 28.6167 436.108 28.4 435.275 28.4H430.425V34.7ZM445.661 44C444.961 44 444.428 43.8083 444.061 43.425C443.711 43.025 443.536 42.525 443.536 41.925V25.5H445.536V42.25H447.436V44H445.661ZM459.973 44C459.223 44 458.681 43.8 458.348 43.4C458.031 43 457.831 42.5 457.748 41.9H457.623C457.339 42.7 456.873 43.3 456.223 43.7C455.573 44.1 454.798 44.3 453.898 44.3C452.531 44.3 451.464 43.95 450.698 43.25C449.948 42.55 449.573 41.6 449.573 40.4C449.573 39.1833 450.014 38.25 450.898 37.6C451.798 36.95 453.189 36.625 455.073 36.625H457.623V35.35C457.623 34.4333 457.373 33.7333 456.873 33.25C456.373 32.7667 455.606 32.525 454.573 32.525C453.789 32.525 453.131 32.7 452.598 33.05C452.081 33.4 451.648 33.8667 451.298 34.45L450.098 33.325C450.448 32.625 451.006 32.0333 451.773 31.55C452.539 31.05 453.506 30.8 454.673 30.8C456.239 30.8 457.456 31.1833 458.323 31.95C459.189 32.7167 459.623 33.7833 459.623 35.15V42.25H461.098V44H459.973ZM454.223 42.6C454.723 42.6 455.181 42.5417 455.598 42.425C456.014 42.3083 456.373 42.1417 456.673 41.925C456.973 41.7083 457.206 41.4583 457.373 41.175C457.539 40.8917 457.623 40.5833 457.623 40.25V38.125H454.973C453.823 38.125 452.981 38.2917 452.448 38.625C451.931 38.9583 451.673 39.4417 451.673 40.075V40.6C451.673 41.2333 451.898 41.725 452.348 42.075C452.814 42.425 453.439 42.6 454.223 42.6ZM467.052 44C466.352 44 465.819 43.8083 465.452 43.425C465.102 43.025 464.927 42.5083 464.927 41.875V32.85H462.802V31.1H464.002C464.435 31.1 464.727 31.0167 464.877 30.85C465.044 30.6667 465.127 30.3583 465.127 29.925V27.525H466.927V31.1H469.752V32.85H466.927V42.25H469.552V44H467.052ZM475.847 44C475.147 44 474.614 43.8083 474.247 43.425C473.897 43.025 473.722 42.5083 473.722 41.875V32.85H471.597V31.1H472.797C473.23 31.1 473.522 31.0167 473.672 30.85C473.839 30.6667 473.922 30.3583 473.922 29.925V27.525H475.722V31.1H478.547V32.85H475.722V42.25H478.347V44H475.847ZM482.468 32.85H480.368V31.1H482.468V28.5C482.468 27.6 482.701 26.875 483.168 26.325C483.634 25.775 484.343 25.5 485.293 25.5H487.243V27.25H484.468V31.1H487.243V32.85H484.468V44H482.468V32.85ZM494.9 44.3C494.034 44.3 493.242 44.1417 492.525 43.825C491.809 43.5083 491.192 43.0583 490.675 42.475C490.175 41.875 489.784 41.1667 489.5 40.35C489.217 39.5167 489.075 38.5833 489.075 37.55C489.075 36.5333 489.217 35.6083 489.5 34.775C489.784 33.9417 490.175 33.2333 490.675 32.65C491.192 32.05 491.809 31.5917 492.525 31.275C493.242 30.9583 494.034 30.8 494.9 30.8C495.767 30.8 496.55 30.9583 497.25 31.275C497.967 31.5917 498.584 32.05 499.1 32.65C499.617 33.2333 500.017 33.9417 500.3 34.775C500.584 35.6083 500.725 36.5333 500.725 37.55C500.725 38.5833 500.584 39.5167 500.3 40.35C500.017 41.1667 499.617 41.875 499.1 42.475C498.584 43.0583 497.967 43.5083 497.25 43.825C496.55 44.1417 495.767 44.3 494.9 44.3ZM494.9 42.525C495.984 42.525 496.867 42.1917 497.55 41.525C498.234 40.8583 498.575 39.8417 498.575 38.475V36.625C498.575 35.2583 498.234 34.2417 497.55 33.575C496.867 32.9083 495.984 32.575 494.9 32.575C493.817 32.575 492.934 32.9083 492.25 33.575C491.567 34.2417 491.225 35.2583 491.225 36.625V38.475C491.225 39.8417 491.567 40.8583 492.25 41.525C492.934 42.1917 493.817 42.525 494.9 42.525ZM504.265 44V31.1H506.265V33.475H506.39C506.623 32.8583 507.04 32.3083 507.64 31.825C508.24 31.3417 509.065 31.1 510.115 31.1H510.89V33.1H509.715C508.631 33.1 507.781 33.3083 507.165 33.725C506.565 34.125 506.265 34.6333 506.265 35.25V44H504.265ZM513.694 44V31.1H515.694V33.2H515.794C515.944 32.8667 516.111 32.5583 516.294 32.275C516.494 31.975 516.728 31.7167 516.994 31.5C517.278 31.2833 517.603 31.1167 517.969 31C518.336 30.8667 518.769 30.8 519.269 30.8C520.119 30.8 520.903 31.0083 521.619 31.425C522.336 31.825 522.869 32.4917 523.219 33.425H523.269C523.503 32.725 523.936 32.1167 524.569 31.6C525.219 31.0667 526.094 30.8 527.194 30.8C528.511 30.8 529.536 31.2333 530.269 32.1C531.019 32.95 531.394 34.1583 531.394 35.725V44H529.394V36.075C529.394 34.925 529.169 34.0583 528.719 33.475C528.269 32.8917 527.553 32.6 526.569 32.6C526.169 32.6 525.786 32.65 525.419 32.75C525.069 32.85 524.753 33 524.469 33.2C524.186 33.4 523.961 33.6583 523.794 33.975C523.628 34.275 523.544 34.6333 523.544 35.05V44H521.544V36.075C521.544 34.925 521.319 34.0583 520.869 33.475C520.419 32.8917 519.719 32.6 518.769 32.6C518.369 32.6 517.986 32.65 517.619 32.75C517.253 32.85 516.928 33 516.644 33.2C516.361 33.4 516.128 33.6583 515.944 33.975C515.778 34.275 515.694 34.6333 515.694 35.05V44H513.694ZM542.629 32.85H540.529V31.1H542.629V28.5C542.629 27.6 542.862 26.875 543.329 26.325C543.795 25.775 544.504 25.5 545.454 25.5H547.404V27.25H544.629V31.1H547.404V32.85H544.629V44H542.629V32.85ZM558.234 41.9H558.134C558.001 42.2 557.834 42.5 557.634 42.8C557.451 43.0833 557.218 43.3417 556.934 43.575C556.651 43.7917 556.309 43.9667 555.909 44.1C555.509 44.2333 555.043 44.3 554.509 44.3C553.176 44.3 552.118 43.875 551.334 43.025C550.551 42.1583 550.159 40.9417 550.159 39.375V31.1H552.159V39.025C552.159 41.3417 553.143 42.5 555.109 42.5C555.509 42.5 555.893 42.45 556.259 42.35C556.643 42.25 556.976 42.1 557.259 41.9C557.559 41.7 557.793 41.45 557.959 41.15C558.143 40.8333 558.234 40.4583 558.234 40.025V31.1H560.234V44H558.234V41.9ZM552.909 28.55C552.476 28.55 552.159 28.45 551.959 28.25C551.776 28.0333 551.684 27.75 551.684 27.4V27.125C551.684 26.775 551.776 26.5 551.959 26.3C552.159 26.0833 552.476 25.975 552.909 25.975C553.343 25.975 553.651 26.0833 553.834 26.3C554.034 26.5 554.134 26.775 554.134 27.125V27.4C554.134 27.75 554.034 28.0333 553.834 28.25C553.651 28.45 553.343 28.55 552.909 28.55ZM557.559 28.55C557.126 28.55 556.809 28.45 556.609 28.25C556.426 28.0333 556.334 27.75 556.334 27.4V27.125C556.334 26.775 556.426 26.5 556.609 26.3C556.809 26.0833 557.126 25.975 557.559 25.975C557.993 25.975 558.301 26.0833 558.484 26.3C558.684 26.5 558.784 26.775 558.784 27.125V27.4C558.784 27.75 558.684 28.0333 558.484 28.25C558.301 28.45 557.993 28.55 557.559 28.55ZM564.743 44V31.1H566.743V33.475H566.868C567.101 32.8583 567.518 32.3083 568.118 31.825C568.718 31.3417 569.543 31.1 570.593 31.1H571.368V33.1H570.193C569.11 33.1 568.26 33.3083 567.643 33.725C567.043 34.125 566.743 34.6333 566.743 35.25V44H564.743ZM582.956 44L578.706 26.55H580.931L582.806 34.95L584.256 41.475H584.306L585.931 34.95L588.131 26.55H590.531L592.656 34.95L594.281 41.45H594.356L595.856 34.95L597.831 26.55H599.981L595.506 44H593.181L590.906 35.3L589.306 28.9H589.256L587.606 35.3L585.281 44H582.956ZM603.847 28.075C603.413 28.075 603.097 27.975 602.897 27.775C602.713 27.5583 602.622 27.2833 602.622 26.95V26.625C602.622 26.2917 602.713 26.025 602.897 25.825C603.097 25.6083 603.413 25.5 603.847 25.5C604.28 25.5 604.588 25.6083 604.772 25.825C604.972 26.025 605.072 26.2917 605.072 26.625V26.95C605.072 27.2833 604.972 27.5583 604.772 27.775C604.588 27.975 604.28 28.075 603.847 28.075ZM602.847 31.1H604.847V44H602.847V31.1ZM609.347 44V31.1H611.347V33.475H611.472C611.705 32.8583 612.122 32.3083 612.722 31.825C613.322 31.3417 614.147 31.1 615.197 31.1H615.972V33.1H614.797C613.713 33.1 612.863 33.3083 612.247 33.725C611.647 34.125 611.347 34.6333 611.347 35.25V44H609.347ZM621.724 44C621.024 44 620.491 43.8083 620.124 43.425C619.774 43.025 619.599 42.5083 619.599 41.875V32.85H617.474V31.1H618.674C619.107 31.1 619.399 31.0167 619.549 30.85C619.716 30.6667 619.799 30.3583 619.799 29.925V27.525H621.599V31.1H624.424V32.85H621.599V42.25H624.224V44H621.724ZM631.764 44.3C630.564 44.3 629.555 44.075 628.739 43.625C627.939 43.1583 627.247 42.5417 626.664 41.775L628.089 40.625C628.589 41.2583 629.147 41.75 629.764 42.1C630.38 42.4333 631.097 42.6 631.914 42.6C632.764 42.6 633.422 42.4167 633.889 42.05C634.372 41.6833 634.614 41.1667 634.614 40.5C634.614 40 634.447 39.575 634.114 39.225C633.797 38.8583 633.214 38.6083 632.364 38.475L631.339 38.325C630.739 38.2417 630.189 38.1167 629.689 37.95C629.189 37.7667 628.747 37.5333 628.364 37.25C627.997 36.95 627.705 36.5833 627.489 36.15C627.289 35.7167 627.189 35.2 627.189 34.6C627.189 33.9667 627.305 33.4167 627.539 32.95C627.772 32.4667 628.089 32.0667 628.489 31.75C628.905 31.4333 629.397 31.2 629.964 31.05C630.53 30.8833 631.139 30.8 631.789 30.8C632.839 30.8 633.714 30.9833 634.414 31.35C635.13 31.7167 635.755 32.225 636.289 32.875L634.964 34.075C634.68 33.675 634.264 33.3167 633.714 33C633.164 32.6667 632.472 32.5 631.639 32.5C630.805 32.5 630.172 32.6833 629.739 33.05C629.322 33.4 629.114 33.8833 629.114 34.5C629.114 35.1333 629.322 35.5917 629.739 35.875C630.172 36.1583 630.789 36.3667 631.589 36.5L632.589 36.65C634.022 36.8667 635.039 37.2833 635.639 37.9C636.239 38.5 636.539 39.2917 636.539 40.275C636.539 41.525 636.114 42.5083 635.264 43.225C634.414 43.9417 633.247 44.3 631.764 44.3ZM645.121 44.3C644.221 44.3 643.413 44.1417 642.696 43.825C641.98 43.5083 641.371 43.0583 640.871 42.475C640.388 41.8917 640.013 41.1833 639.746 40.35C639.496 39.5167 639.371 38.5833 639.371 37.55C639.371 36.5167 639.496 35.5833 639.746 34.75C640.013 33.9167 640.388 33.2083 640.871 32.625C641.371 32.0417 641.98 31.5917 642.696 31.275C643.413 30.9583 644.221 30.8 645.121 30.8C646.405 30.8 647.43 31.0833 648.196 31.65C648.98 32.2 649.563 32.925 649.946 33.825L648.271 34.675C648.038 34.0083 647.655 33.4917 647.121 33.125C646.588 32.7583 645.921 32.575 645.121 32.575C644.521 32.575 643.996 32.675 643.546 32.875C643.096 33.0583 642.721 33.325 642.421 33.675C642.121 34.0083 641.896 34.4167 641.746 34.9C641.596 35.3667 641.521 35.8833 641.521 36.45V38.65C641.521 39.7833 641.821 40.7167 642.421 41.45C643.038 42.1667 643.938 42.525 645.121 42.525C646.738 42.525 647.905 41.775 648.621 40.275L650.071 41.25C649.655 42.1833 649.03 42.925 648.196 43.475C647.38 44.025 646.355 44.3 645.121 44.3ZM653.145 25.5H655.145V33.2H655.245C655.561 32.4667 656.003 31.8833 656.57 31.45C657.153 31.0167 657.928 30.8 658.895 30.8C660.228 30.8 661.278 31.2333 662.045 32.1C662.828 32.95 663.22 34.1583 663.22 35.725V44H661.22V36.075C661.22 33.7583 660.245 32.6 658.295 32.6C657.895 32.6 657.503 32.65 657.12 32.75C656.753 32.85 656.42 33 656.12 33.2C655.82 33.4 655.578 33.6583 655.395 33.975C655.228 34.275 655.145 34.6333 655.145 35.05V44H653.145V25.5ZM676.979 44C676.229 44 675.687 43.8 675.354 43.4C675.037 43 674.837 42.5 674.754 41.9H674.629C674.345 42.7 673.879 43.3 673.229 43.7C672.579 44.1 671.804 44.3 670.904 44.3C669.537 44.3 668.47 43.95 667.704 43.25C666.954 42.55 666.579 41.6 666.579 40.4C666.579 39.1833 667.02 38.25 667.904 37.6C668.804 36.95 670.195 36.625 672.079 36.625H674.629V35.35C674.629 34.4333 674.379 33.7333 673.879 33.25C673.379 32.7667 672.612 32.525 671.579 32.525C670.795 32.525 670.137 32.7 669.604 33.05C669.087 33.4 668.654 33.8667 668.304 34.45L667.104 33.325C667.454 32.625 668.012 32.0333 668.779 31.55C669.545 31.05 670.512 30.8 671.679 30.8C673.245 30.8 674.462 31.1833 675.329 31.95C676.195 32.7167 676.629 33.7833 676.629 35.15V42.25H678.104V44H676.979ZM671.229 42.6C671.729 42.6 672.187 42.5417 672.604 42.425C673.02 42.3083 673.379 42.1417 673.679 41.925C673.979 41.7083 674.212 41.4583 674.379 41.175C674.545 40.8917 674.629 40.5833 674.629 40.25V38.125H671.979C670.829 38.125 669.987 38.2917 669.454 38.625C668.937 38.9583 668.679 39.4417 668.679 40.075V40.6C668.679 41.2333 668.904 41.725 669.354 42.075C669.82 42.425 670.445 42.6 671.229 42.6ZM681.908 32.85H679.808V31.1H681.908V28.5C681.908 27.6 682.141 26.875 682.608 26.325C683.075 25.775 683.783 25.5 684.733 25.5H686.683V27.25H683.908V31.1H686.683V32.85H683.908V44H681.908V32.85ZM692.413 44C691.713 44 691.18 43.8083 690.813 43.425C690.463 43.025 690.288 42.5083 690.288 41.875V32.85H688.163V31.1H689.363C689.797 31.1 690.088 31.0167 690.238 30.85C690.405 30.6667 690.488 30.3583 690.488 29.925V27.525H692.288V31.1H695.113V32.85H692.288V42.25H694.913V44H692.413ZM702.453 44.3C701.253 44.3 700.245 44.075 699.428 43.625C698.628 43.1583 697.936 42.5417 697.353 41.775L698.778 40.625C699.278 41.2583 699.836 41.75 700.453 42.1C701.07 42.4333 701.786 42.6 702.603 42.6C703.453 42.6 704.111 42.4167 704.578 42.05C705.061 41.6833 705.303 41.1667 705.303 40.5C705.303 40 705.136 39.575 704.803 39.225C704.486 38.8583 703.903 38.6083 703.053 38.475L702.028 38.325C701.428 38.2417 700.878 38.1167 700.378 37.95C699.878 37.7667 699.436 37.5333 699.053 37.25C698.686 36.95 698.395 36.5833 698.178 36.15C697.978 35.7167 697.878 35.2 697.878 34.6C697.878 33.9667 697.995 33.4167 698.228 32.95C698.461 32.4667 698.778 32.0667 699.178 31.75C699.595 31.4333 700.086 31.2 700.653 31.05C701.22 30.8833 701.828 30.8 702.478 30.8C703.528 30.8 704.403 30.9833 705.103 31.35C705.82 31.7167 706.445 32.225 706.978 32.875L705.653 34.075C705.37 33.675 704.953 33.3167 704.403 33C703.853 32.6667 703.161 32.5 702.328 32.5C701.495 32.5 700.861 32.6833 700.428 33.05C700.011 33.4 699.803 33.8833 699.803 34.5C699.803 35.1333 700.011 35.5917 700.428 35.875C700.861 36.1583 701.478 36.3667 702.278 36.5L703.278 36.65C704.711 36.8667 705.728 37.2833 706.328 37.9C706.928 38.5 707.228 39.2917 707.228 40.275C707.228 41.525 706.803 42.5083 705.953 43.225C705.103 43.9417 703.936 44.3 702.453 44.3ZM711.011 31.1H713.011V33.2H713.111C713.444 32.3833 713.927 31.7833 714.561 31.4C715.211 31 715.986 30.8 716.886 30.8C717.686 30.8 718.411 30.9583 719.061 31.275C719.711 31.5917 720.261 32.0417 720.711 32.625C721.177 33.2083 721.527 33.9167 721.761 34.75C722.011 35.5833 722.136 36.5167 722.136 37.55C722.136 38.5833 722.011 39.5167 721.761 40.35C721.527 41.1833 721.177 41.8917 720.711 42.475C720.261 43.0583 719.711 43.5083 719.061 43.825C718.411 44.1417 717.686 44.3 716.886 44.3C715.136 44.3 713.877 43.5 713.111 41.9H713.011V49H711.011V31.1ZM716.336 42.5C717.469 42.5 718.361 42.15 719.011 41.45C719.661 40.7333 719.986 39.8 719.986 38.65V36.45C719.986 35.3 719.661 34.375 719.011 33.675C718.361 32.9583 717.469 32.6 716.336 32.6C715.886 32.6 715.452 32.6667 715.036 32.8C714.636 32.9167 714.286 33.0833 713.986 33.3C713.686 33.5167 713.444 33.7833 713.261 34.1C713.094 34.4 713.011 34.725 713.011 35.075V39.875C713.011 40.2917 713.094 40.6667 713.261 41C713.444 41.3167 713.686 41.5917 713.986 41.825C714.286 42.0417 714.636 42.2083 715.036 42.325C715.452 42.4417 715.886 42.5 716.336 42.5ZM730.638 44.3C729.771 44.3 728.979 44.1417 728.263 43.825C727.546 43.5083 726.929 43.0583 726.413 42.475C725.913 41.875 725.521 41.1667 725.238 40.35C724.954 39.5167 724.813 38.5833 724.813 37.55C724.813 36.5333 724.954 35.6083 725.238 34.775C725.521 33.9417 725.913 33.2333 726.413 32.65C726.929 32.05 727.546 31.5917 728.263 31.275C728.979 30.9583 729.771 30.8 730.638 30.8C731.504 30.8 732.288 30.9583 732.988 31.275C733.704 31.5917 734.321 32.05 734.838 32.65C735.354 33.2333 735.754 33.9417 736.038 34.775C736.321 35.6083 736.463 36.5333 736.463 37.55C736.463 38.5833 736.321 39.5167 736.038 40.35C735.754 41.1667 735.354 41.875 734.838 42.475C734.321 43.0583 733.704 43.5083 732.988 43.825C732.288 44.1417 731.504 44.3 730.638 44.3ZM730.638 42.525C731.721 42.525 732.604 42.1917 733.288 41.525C733.971 40.8583 734.313 39.8417 734.313 38.475V36.625C734.313 35.2583 733.971 34.2417 733.288 33.575C732.604 32.9083 731.721 32.575 730.638 32.575C729.554 32.575 728.671 32.9083 727.988 33.575C727.304 34.2417 726.963 35.2583 726.963 36.625V38.475C726.963 39.8417 727.304 40.8583 727.988 41.525C728.671 42.1917 729.554 42.525 730.638 42.525ZM742.127 44C741.427 44 740.894 43.8083 740.527 43.425C740.177 43.025 740.002 42.525 740.002 41.925V25.5H742.002V42.25H743.902V44H742.127ZM748.063 28.075C747.63 28.075 747.313 27.975 747.113 27.775C746.93 27.5583 746.838 27.2833 746.838 26.95V26.625C746.838 26.2917 746.93 26.025 747.113 25.825C747.313 25.6083 747.63 25.5 748.063 25.5C748.497 25.5 748.805 25.6083 748.988 25.825C749.188 26.025 749.288 26.2917 749.288 26.625V26.95C749.288 27.2833 749.188 27.5583 748.988 27.775C748.805 27.975 748.497 28.075 748.063 28.075ZM747.063 31.1H749.063V44H747.063V31.1ZM756.413 44C755.713 44 755.18 43.8083 754.813 43.425C754.463 43.025 754.288 42.5083 754.288 41.875V32.85H752.163V31.1H753.363C753.797 31.1 754.088 31.0167 754.238 30.85C754.405 30.6667 754.488 30.3583 754.488 29.925V27.525H756.288V31.1H759.113V32.85H756.288V42.25H758.913V44H756.413ZM763.578 28.075C763.145 28.075 762.828 27.975 762.628 27.775C762.445 27.5583 762.353 27.2833 762.353 26.95V26.625C762.353 26.2917 762.445 26.025 762.628 25.825C762.828 25.6083 763.145 25.5 763.578 25.5C764.011 25.5 764.32 25.6083 764.503 25.825C764.703 26.025 764.803 26.2917 764.803 26.625V26.95C764.803 27.2833 764.703 27.5583 764.503 27.775C764.32 27.975 764.011 28.075 763.578 28.075ZM762.578 31.1H764.578V44H762.578V31.1ZM769.078 25.5H771.078V37.225H771.178L773.153 35.025L776.803 31.1H779.228L774.453 36.2L779.703 44H777.278L773.003 37.425L771.078 39.4V44H769.078V25.5Z" fill="#333333"></path></svg>