<svg xmlns="http://www.w3.org/2000/svg" width="20" height="20" viewBox="0 0 20 20" fill="none"><path d="M14.5561 12.8208L14.4801 12.9245L14.571 13.0154L19.7879 18.2323L18.2323 19.7879L13.0154 14.571L12.9245 14.4801L12.8207 14.5561C11.5013 15.5226 9.88106 16.1 8.125 16.1C3.72763 16.1 0.15 12.5224 0.15 8.125C0.15 3.72763 3.72763 0.15 8.125 0.15C12.5224 0.15 16.1 3.72763 16.1 8.125C16.1 9.88103 15.5221 11.5013 14.5561 12.8208ZM2.35 8.125C2.35 11.3094 4.94006 13.9 8.125 13.9C11.3094 13.9 13.9 11.3094 13.9 8.125C13.9 4.9406 11.3099 2.35 8.125 2.35C4.94006 2.35 2.35 4.9406 2.35 8.125Z" fill="#333333" stroke="white" stroke-width="0.3"></path></svg>